<svg width="32" height="32" viewBox="0 0 32 32" fill="none" xmlns="http://www.w3.org/2000/svg">
<path d="M16 5.33333L13.2133 8.12L16 10.9067M5.69333 4L4 5.69333L10.3067 12H4V20H9.33333L16 26.6667V17.6933L21.6667 23.3733C20.7733 24.0533 19.7733 24.6133 18.6667 24.9333V27.6933C20.5067 27.2667 22.1733 26.4267 23.5733 25.28L26.3067 28L28 26.3067L16 14.3067M25.3333 16C25.3333 17.2533 25.0667 18.4267 24.6133 19.52L26.6267 21.5333C27.5265 19.8276 27.9978 17.9285 28 16C28 10.2933 24 5.52 18.6667 4.30667V7.05333C22.52 8.2 25.3333 11.7733 25.3333 16ZM22 16C22 13.64 20.6667 11.6133 18.6667 10.6267V13.5733L21.9333 16.84C22 16.5733 22 16.28 22 16Z" fill="white"/>
</svg>
