<svg width="496" height="496" viewBox="0 0 496 496" fill="none" xmlns="http://www.w3.org/2000/svg">
<path d="M115.5 283C137.8 265.1 137.9 231.1 115.5 213.1C124.1 180.3 144.6 152.4 172 134L195.7 173.6C144.2 209.9 144.2 286.1 195.7 322.4L172 362C144.6 343.7 124.2 315.7 115.5 283Z" fill="white"/>
<path d="M338.6 239.9C333.2 177.9 267.3 138.7 209.7 165.5L187.2 125.2C235.1 101.5 278.7 114.4 283.9 115.8C288.3 144.1 317.7 161.1 344.4 150.8C367.5 173.7 382.4 204.7 384.6 239.3L338.6 239.9Z" fill="white"/>
<path d="M344.5 345.2C317.8 334.9 288.4 351.8 284 380.2C278.8 381.6 235.1 394.5 187.3 370.8L209.8 330.5C266.8 357 333.2 318.8 338.7 256.1L384.8 256.8C382.5 291.3 367.5 322.3 344.5 345.2Z" fill="white"/>
<path d="M344.2 414.7C328.9 423.5 309.5 418.3 300.7 403C291.9 387.7 297.1 368.2 312.4 359.4C327.6 350.6 347.1 355.8 355.9 371.1C364.7 386.4 359.5 405.9 344.2 414.7Z" fill="white"/>
<path d="M87.4 279.9C69.8 279.9 55.5 265.6 55.5 248C55.5 230.4 69.8 216.1 87.4 216.1C105 216.1 119.3 230.4 119.3 248C119.3 265.6 105 279.9 87.4 279.9Z" fill="white"/>
<path d="M300.7 93C309.5 77.8 329 72.5 344.2 81.3C359.5 90.1 364.7 109.6 355.9 124.9C347.1 140.1 327.6 145.4 312.4 136.6C297.1 127.7 291.9 108.2 300.7 93Z" fill="white"/>
</svg>
